<svg width="180" height="52" viewBox="0 0 180 52" fill="none" xmlns="http://www.w3.org/2000/svg">
  <rect x="0.5" y="0.5" width="179" height="51" rx="25.5" fill="url(#paint0_radial)" stroke="rgba(200,155,60,0.35)" />
  <path d="M45.4 36V16h5.78l6.18 11.38L63.52 16h5.62v20h-4.54V23.5l-6.22 11.5h-.24L51.94 23.5V36H45.4ZM77.8 36.36c-2.38 0-4.32-.74-5.82-2.22-1.5-1.48-2.24-3.42-2.24-5.82s.74-4.34 2.24-5.84c1.5-1.5 3.44-2.24 5.82-2.24 2.36 0 4.28.74 5.76 2.22 1.5 1.48 2.24 3.42 2.24 5.82s-.74 4.34-2.24 5.84c-1.48 1.48-3.4 2.22-5.76 2.22Zm0-3.82c1.16 0 2.08-.38 2.76-1.14.68-.76 1.02-1.82 1.02-3.18s-.34-2.42-1.02-3.18c-.68-.76-1.6-1.14-2.76-1.14s-2.1.38-2.8 1.14c-.68.76-1.02 1.82-1.02 3.18s.34 2.42 1.02 3.18c.7.76 1.64 1.14 2.8 1.14ZM96.44 36.36c-2.08 0-3.74-.54-5-1.62-1.24-1.08-1.86-2.54-1.86-4.38 0-1.84.64-3.3 1.92-4.38 1.28-1.08 3.1-1.62 5.46-1.62 2.06 0 3.7.3 4.92.9v-.34c0-1.04-.36-1.84-1.08-2.42-.72-.6-1.78-.9-3.18-.9-1.58 0-3.14.4-4.68 1.2l-1.34-3.48c1.08-.5 2.18-.9 3.3-1.18 1.12-.3 2.54-.44 4.26-.44 2.74 0 4.84.62 6.3 1.86 1.48 1.22 2.22 3 2.22 5.34V36h-4.68l-.22-1.86c-1.52 1.4-3.5 2.1-5.94 2.1Zm1.12-3.58c1.46 0 2.72-.42 3.78-1.26V28.3c-.9-.42-2.02-.64-3.36-.64-1.18 0-2.08.24-2.7.72-.62.46-.94 1.12-.94 1.96 0 .84.3 1.5.9 1.96.62.46 1.52.7 2.64.7ZM117.02 40.68l1.16-3.7c.74.3 1.46.44 2.16.44 1.04 0 1.8-.3 2.28-.9.48-.6.72-1.48.72-2.64V16h4.76v18.24c0 2.48-.6 4.34-1.8 5.58-1.18 1.22-2.9 1.84-5.16 1.84-1.58 0-3-.28-4.32-.98Z" fill="#1B1B1B"/>
  <defs>
    <radialGradient id="paint0_radial" cx="0" cy="0" r="1" gradientUnits="userSpaceOnUse" gradientTransform="matrix(180 0 0 52 0 0)">
      <stop offset="0" stop-color="#FBE4AF" />
      <stop offset="1" stop-color="#C89B3C" />
    </radialGradient>
  </defs>
</svg>
